<svg width="953" height="363" viewBox="0 0 953 363" fill="none" xmlns="http://www.w3.org/2000/svg">
<path fill-rule="evenodd" clip-rule="evenodd" d="M111.639 97.0193C111.712 98.13 111.883 101.096 112.018 103.611C112.153 106.126 112.381 109.676 112.523 111.499C112.699 113.75 112.809 130.66 112.866 164.143L112.949 213.472H123.833H134.715L134.724 180.033C134.729 161.642 134.828 141.914 134.943 136.192C135.413 112.911 135.699 95.2458 135.606 95.1543C135.552 95.1013 134.105 95.2053 132.389 95.3859C127.394 95.9118 118.825 95.8025 112.74 95.1354L111.504 95L111.639 97.0193ZM300.063 97.1165C297.016 97.5644 294.681 98.8057 292.544 101.113C291.011 102.768 290.061 104.703 289.568 107.173C288.317 113.437 292.482 119.787 298.927 121.443C305.511 123.135 312.384 119.018 313.983 112.424C314.678 109.555 314.245 106.001 312.894 103.497C310.468 98.9984 305.173 96.3657 300.063 97.1165ZM185.348 98.211C181.861 99.4552 180.657 100.456 169.492 111.376C164.066 116.683 159.209 121.4 158.699 121.858L157.773 122.69L161.596 122.695L165.419 122.701L168.664 120.967C170.448 120.014 173.003 118.663 174.341 117.964C175.68 117.266 177.087 116.517 177.47 116.299C177.852 116.081 178.947 115.49 179.903 114.985C191.468 108.876 192.071 108.516 193.211 107.042C194.124 105.86 194.502 104.803 194.497 103.447C194.488 101.303 193.102 99.2856 190.924 98.2453C189.658 97.6408 186.993 97.6245 185.348 98.211ZM56.0428 104.078C49.144 104.627 43.6975 105.66 37.9715 107.504C22.6186 112.449 10.2621 123.378 4.63186 136.992C2.70813 141.644 1.63399 145.746 0.740167 151.854C0.291556 154.917 0.359121 165.873 0.850503 169.847C3.56793 191.809 14.0342 204.287 35.6886 211.382C51.789 216.657 70.655 216.802 85.3109 211.762C87.2171 211.107 91.5147 209.307 91.7524 209.065C91.7801 209.036 92.2379 207.367 92.7701 205.355C93.557 202.376 95.1653 197.206 95.6995 195.936C95.7636 195.784 95.4127 195.46 94.9077 195.206L94.0003 194.749L91.7383 196.449C82.0433 203.732 73.0249 206.749 62.2996 206.299C55.7152 206.023 50.5764 204.561 45.7038 201.58C36.5085 195.953 30.1541 185.395 28.0228 172.203C26.7766 164.487 26.8252 154.425 28.1419 147.624C30.035 137.847 34.0079 130.027 40.3784 123.543C44.0246 119.832 48.0324 117.198 52.5667 115.535C60.3651 112.675 70.7245 113.087 78.0967 116.55C82.5498 118.642 87.5457 122.819 90.4464 126.876L91.713 128.647H92.9378C94.1393 128.647 94.1621 128.634 94.1621 127.973C94.1621 126.785 95.0797 122.508 96.5121 117.016C97.2786 114.077 97.8195 111.592 97.7141 111.494C97.4842 111.281 94.8698 110.165 91.8452 108.989C80.7835 104.688 68.881 103.055 56.0428 104.078ZM494.26 124.741C493.851 125.187 493.808 125.675 493.74 130.425C493.696 133.665 493.535 136.373 493.317 137.621C492.879 140.143 492.879 141.235 493.322 142.946C494.138 146.098 495.669 148.212 499.13 150.958L501.302 152.684L501.886 154.51C502.6 156.738 502.615 157.812 501.963 159.742C501.526 161.032 501.458 161.754 501.443 165.229C501.429 170.044 501.706 171.234 503.961 175.975C506.308 180.901 508.204 186.951 509.215 192.745C509.633 195.14 509.662 195.728 509.434 197.227C509.215 198.656 509.23 199.287 509.536 200.897C510.207 204.419 510.343 205.839 510.124 207.167C509.857 208.76 509.832 208.8 508.68 209.38C507.538 209.954 505.57 211.733 505.118 212.595C504.515 213.745 504.685 214.276 505.891 214.999C508.019 216.278 508.452 216.444 509.643 216.444C511.174 216.444 512.316 215.865 513.93 214.274L515.193 213.027L516.19 213.473C516.826 213.757 517.701 213.92 518.615 213.924C519.942 213.928 520.088 213.877 520.681 213.186C522.1 211.536 523.5 207.681 524.02 203.983C524.165 202.977 524.331 201.819 524.394 201.411C524.457 201.002 524.632 200.671 524.788 200.674C525.293 200.687 527.505 203.714 528.559 205.831C529.128 206.973 529.716 208.49 529.867 209.202L530.144 210.495L529.342 211.314C528.899 211.765 527.782 212.601 526.853 213.173C525.152 214.222 524.826 214.582 524.472 215.805C523.942 217.632 525.687 218.455 531.208 218.977C535.966 219.428 539.199 218.952 539.879 217.701C540.015 217.45 540.151 217.204 540.18 217.154C540.209 217.105 540.705 217.448 541.284 217.915L542.334 218.765L545.4 218.685C548.268 218.611 548.569 218.559 549.974 217.897C550.805 217.509 552.02 217.077 552.671 216.939C555.768 216.288 561.687 216.376 573.032 217.244C578.874 217.69 587.083 217.687 590.655 217.239C600.308 216.024 608.396 212.398 614.913 206.36C618.063 203.445 619.011 202.221 618.549 201.672C618.301 201.38 617.966 201.327 616.989 201.427C615.531 201.575 613.98 202.428 612.08 204.127C610.626 205.427 607.229 207.737 605.513 208.596C603.778 209.463 600.604 210.632 598.519 211.174C590.135 213.352 577.649 212.472 569.104 209.1C567.923 208.632 567.656 208.412 567.194 207.527C566.431 206.048 565.804 203.314 565.386 199.639C564.681 193.449 563.277 188.527 560.745 183.373C558.271 178.329 555.437 174.516 550.99 170.245C545.882 165.338 542.008 162.821 532.015 157.925C525.502 154.731 522.737 153.616 520.374 153.232C519.407 153.074 519.388 153.054 519.388 152.162C519.388 151.506 519.713 150.661 520.549 149.126C521.944 146.57 522.736 144.364 523.096 142.004C523.436 139.8 523.325 139.236 522.041 136.655L521.006 134.565L521.342 133.264C521.857 131.248 522.207 128.444 522.129 126.932C522.056 125.597 522.037 125.558 521.356 125.481C519.412 125.259 515.203 126.94 513.687 128.543L512.724 129.563L511.363 128.934C510.114 128.357 509.779 128.306 507.339 128.321C505.842 128.331 504.384 128.458 504.01 128.611C503.373 128.872 503.281 128.822 501.774 127.419C499.927 125.7 497.749 124.56 495.966 124.379C494.882 124.27 494.648 124.319 494.26 124.741ZM431.561 136.347C424.475 136.857 420.329 137.866 415.182 140.335C412.392 141.676 407.05 145.021 405.262 146.548L404.338 147.338L405.388 151.997C406.438 156.645 406.443 156.656 407.089 156.73C407.633 156.792 408.051 156.508 409.631 154.994C414.861 149.975 420.363 147.625 426.88 147.624C432.888 147.624 437.972 150.257 440.14 154.492C441.714 157.564 442.239 161.822 441.282 163.766C439.863 166.657 435.182 169.068 426.001 171.636C419.153 173.551 413.49 175.612 408.853 177.877C404.445 180.031 402.375 182.295 400.989 186.492C399.769 190.177 399.444 196.235 400.26 200.133C401.752 207.268 406.958 212.432 414.744 214.493C421.714 216.339 429.641 215.449 434.604 212.264C437.355 210.499 440.407 207.503 442.827 204.194L443.313 203.526L444.188 205.241C446.103 209.021 448.251 211.281 451.377 212.804C455.153 214.647 459.284 214.843 464.699 213.437C466.721 212.912 470.561 211.438 472.233 210.546L473.389 209.927L473.457 208.041C473.53 205.939 473.511 205.916 471.883 206.392C470.75 206.722 468.451 206.271 467.168 205.467C466.439 205.013 465.972 204.476 465.54 203.6C464.033 200.562 463.78 196.72 463.771 176.318C463.761 156.806 463.547 153.873 461.846 150.113C460.636 147.433 456.631 142.267 454.57 140.73C451.241 138.246 446.565 136.958 438.978 136.43C435.755 136.206 433.821 136.185 431.561 136.347ZM240.674 136.648C233.907 137.592 227.398 141.469 222.164 147.674L220.456 149.699L220.469 146.547C220.477 144.813 220.619 142.211 220.786 140.765C220.952 139.319 221.062 138.105 221.031 138.067C220.999 138.029 220.017 138.162 218.85 138.361C213.826 139.222 207.467 139.223 201.361 138.367C199.973 138.172 198.823 138.04 198.806 138.074C198.756 138.177 199.093 150.887 199.38 159.627C199.527 164.154 199.7 178.121 199.762 190.665L199.874 213.472H210.778H221.682L221.517 205.984C221.426 201.865 221.257 196.13 221.141 193.237C220.616 180.14 221.012 164.32 221.966 160.261C223.119 155.357 227.181 151.069 231.532 150.166C233.05 149.85 236.217 149.844 237.578 150.153C242.937 151.372 246.3 156.411 247.342 164.785C247.668 167.401 247.514 190.121 247.129 196.209C246.994 198.347 246.777 202.308 246.647 205.012C246.517 207.715 246.344 210.725 246.264 211.699L246.118 213.472H258.108H270.098L269.932 207.355C269.841 203.992 269.694 199.331 269.605 196.999C269.517 194.668 269.522 189.266 269.616 184.996C269.71 180.726 269.813 173.014 269.845 167.858C269.909 157.662 269.809 156.484 268.508 152.197C265.993 143.903 260.021 138.715 251.004 136.991C248.739 136.557 242.749 136.359 240.674 136.648ZM362.505 136.557C350.835 137.573 342.346 141.26 335.623 148.232C328.135 155.997 324.492 167.485 325.41 180.434C326.144 190.773 329.698 198.653 336.515 205.054C342.133 210.329 349.145 213.498 357.917 214.729C361.173 215.185 368.77 215.179 371.978 214.717C377.786 213.88 382.632 212.26 387.463 209.54C388.834 208.771 389.164 208.472 389.29 207.892C389.602 206.484 390.622 203.736 391.633 201.596L392.664 199.41L391.779 198.642C389.947 197.051 389.947 197.051 388.853 198.086C385.358 201.388 380.916 203.569 376.138 204.329C373.766 204.706 368.007 204.508 365.98 203.98C364.158 203.504 361.086 202.126 359.592 201.113C356.057 198.713 352.897 194.207 351.183 189.122C348.536 181.267 348.345 169.065 350.733 160.314C352.071 155.407 354.266 151.424 357.292 148.408C359.539 146.169 360.721 145.41 363.433 144.468C364.994 143.926 365.489 143.866 368.299 143.878C371.103 143.89 371.628 143.959 373.363 144.538C378.671 146.311 382.228 150.559 384.163 157.427L384.654 159.17H386.724H388.795L389.436 156.655C390.326 153.194 391.521 149.674 393.038 146.044C394.511 142.514 394.647 142.975 391.691 141.459C387.662 139.391 382.617 137.88 377.106 137.09C374.092 136.659 365.105 136.331 362.505 136.557ZM167.737 137.125C166.207 137.225 164.174 137.411 163.218 137.539C162.262 137.668 159.989 137.842 158.167 137.927L154.854 138.081L154.984 139.595C155.056 140.427 155.217 143.834 155.342 147.167C155.467 150.499 155.684 155.849 155.823 159.056C156.137 166.288 156.136 168.713 155.816 176.775C155.48 185.266 155.167 193.448 154.885 201.125C154.758 204.583 154.586 208.776 154.502 210.442L154.35 213.472H166.563H178.777L178.642 210.328C178.569 208.599 178.407 204.458 178.284 201.125C178.161 197.793 177.94 191.979 177.793 188.207C177.349 176.776 178.319 146.101 179.349 139.003C179.482 138.089 179.457 138.035 178.827 137.895C178.463 137.813 177.789 137.654 177.33 137.541C176.558 137.351 171.274 136.848 170.749 136.915C170.622 136.931 169.266 137.026 167.737 137.125ZM290.064 142.045C290.23 146.45 290.526 153.05 290.907 160.855C291.068 164.16 291.07 167.525 290.914 171.258C290.686 176.687 290.458 182.776 289.967 196.553C289.831 200.388 289.626 205.686 289.514 208.327C289.401 210.968 289.381 213.201 289.468 213.289C289.556 213.378 290.41 213.326 291.365 213.175C293.672 212.81 308.828 212.828 311.508 213.198C312.581 213.347 313.505 213.424 313.56 213.369C313.655 213.276 313.5 208.391 312.89 192.208C312.351 177.906 313.028 151.155 314.226 139.436L314.373 137.992L312.428 138.134C309.224 138.368 303.93 138.376 296.721 138.159L289.91 137.953L290.064 142.045ZM442.545 180.491C442.492 184.735 442.404 189.442 442.351 190.951C442.074 198.785 438.793 203.447 432.937 204.344C427.177 205.226 423.775 202.68 422.623 196.619C422.064 193.662 422.244 187.741 422.968 185.172C423.634 182.82 424.893 180.85 426.365 179.851C428.125 178.656 441.36 172.813 442.375 172.782C442.575 172.776 442.618 174.729 442.545 180.491ZM142.367 227.453C140.221 227.674 139.509 228.016 137.82 229.64C136.456 230.951 135.527 232.369 134.291 235.029C132.448 238.998 131.3 240.831 129.086 243.34C127.912 244.671 126.223 246.7 125.333 247.849C123.201 250.599 119.582 254.162 116.988 256.066C115.841 256.907 113.63 258.232 112.076 259.011L109.25 260.427L106.167 260.605C104.471 260.704 102.145 260.887 100.998 261.011C99.8512 261.136 96.8271 261.348 94.2783 261.483C91.729 261.618 88.8094 261.832 87.7897 261.96C84.6105 262.358 71.0924 264.478 68.2088 265.031C65.121 265.623 61.1467 266.048 55.4042 266.399C45.3855 267.011 45.9459 266.916 38.4872 269.278C33.2025 270.951 28.8875 272.542 26.1924 273.811C24.2162 274.742 24.1953 274.746 21.4701 274.746C19.4701 274.746 18.3157 274.628 17.1847 274.31C12.3253 272.938 8.12548 269.061 5.44985 263.476C3.90377 260.249 2.43547 255.303 2.04178 251.997C1.88041 250.644 1.44152 249.825 0.878203 249.825C0.423273 249.825 0.203583 255.057 0.514646 258.484C0.972492 263.533 1.90423 266.898 3.74436 270.149C6.93227 275.78 12.7628 279.345 19.7189 279.914L21.6305 280.071V282.196C21.6305 283.774 21.454 285.034 20.9457 287.089C20.2608 289.855 19.8773 292.259 19.1935 298.067C18.7692 301.668 18.2511 305.296 17.9527 306.755C17.714 307.919 16.1781 314.68 15.8744 315.901C15.4428 317.636 12.4847 324.217 11.7426 325.093C11.2215 325.709 10.9712 326.242 10.9712 326.736C10.9712 327.466 10.3156 328.661 8.60568 331.049C8.05695 331.814 7.53301 332.982 7.15731 334.274C6.59496 336.209 6.56823 336.567 6.56823 342.176C6.56823 346.988 6.62995 348.131 6.90845 348.495C7.14661 348.806 7.25111 349.546 7.25597 350.96L7.26326 352.981L8.36413 354.257C10.8555 357.144 14.5271 359.5 16.6486 359.572C18.4377 359.632 18.4737 359.622 19.5036 358.752C20.3376 358.048 20.4723 357.809 20.4723 357.03C20.4723 355.55 19.9629 354.67 18.7784 354.104C18.201 353.829 17.5901 353.436 17.4204 353.232C17.0617 352.801 14.1164 350.882 13.8126 350.882C13.6998 350.882 13.379 350.672 13.1006 350.416C12.6101 349.965 12.5931 349.792 12.5931 345.201V340.453L14.0794 337.494C14.8969 335.866 15.992 333.888 16.5125 333.098C17.0336 332.308 17.4593 331.481 17.4593 331.261C17.4593 331.041 17.7986 330.665 18.2127 330.424C18.6268 330.185 20.4256 328.54 22.2098 326.77C23.9946 325 26.8252 322.295 28.5006 320.758C31.1816 318.3 35.7873 313.166 37.0592 311.219C37.5054 310.536 40.5261 307.441 40.7468 307.441C41.1273 307.441 40.3856 315.267 39.815 317.275C39.6192 317.965 39.0364 320.319 38.5207 322.506C37.9647 324.861 37.1146 327.656 36.4347 329.365C35.135 332.628 34.6179 334.415 34.5542 335.862C34.5187 336.664 34.6553 337.053 35.2541 337.857C35.6633 338.405 35.9987 339.014 35.9987 339.209C36.0006 340.035 36.9353 341.175 40.8343 345.105C41.3917 345.667 42.462 346.931 43.2129 347.915C43.9638 348.898 45.2528 350.225 46.0766 350.864C46.9 351.502 48.4018 352.837 49.4133 353.83C52.8632 357.216 54.3519 357.958 57.706 357.965C59.9807 357.97 60.0813 357.948 60.5445 357.368C61.1797 356.571 61.1758 355.048 60.5352 353.788C60.022 352.779 59.2186 351.797 58.907 351.797C58.5566 351.797 54.1818 349.221 53.146 348.405C50.6293 346.422 46.7362 341.383 46.152 339.354C46.0042 338.841 45.6927 338.209 45.4594 337.95C44.9301 337.36 44.8737 334.936 45.3675 333.993C45.5498 333.645 47.0667 331.669 48.7377 329.603C50.4087 327.537 52.954 324.149 54.3942 322.074C55.8343 319.999 59.0538 315.663 61.5486 312.439C64.0434 309.215 66.4323 306.053 66.8571 305.414C67.2819 304.774 67.8423 304.192 68.1023 304.118C68.7274 303.944 71.9274 304.873 75.9552 306.4C79.8882 307.891 86.1732 309.983 88.7166 310.648C90.8624 311.209 94.3065 311.465 102.816 311.697C106.784 311.805 108.834 311.944 108.89 312.108C108.986 312.384 109.546 316.877 109.905 320.245C110.459 325.442 110.605 328.814 110.576 335.792C110.551 341.645 110.627 343.806 110.934 345.966C111.704 351.389 111.923 352.159 113.514 354.998C114.323 356.444 115.188 358.09 115.435 358.656C115.681 359.222 116.584 360.431 117.442 361.342L119.001 363H121.378C123.664 363 123.792 362.973 124.739 362.296C125.46 361.78 125.907 361.192 126.414 360.089L127.106 358.584L126.218 356.875C125.224 354.961 123.875 353.325 122.87 352.812C122.502 352.625 122.202 352.37 122.202 352.246C122.202 352.122 121.626 350.504 120.921 348.651L119.641 345.281L119.873 341.622C120.001 339.61 120.149 337.141 120.204 336.135C120.334 333.745 120.955 328.247 121.406 325.503C121.602 324.309 121.859 321.685 121.976 319.673C122.094 317.661 122.237 315.692 122.293 315.296C122.414 314.453 124.052 311.915 124.306 312.177C124.514 312.392 125.083 328.131 124.894 328.433C124.821 328.549 124.747 331.409 124.729 334.79C124.698 340.567 124.733 341.122 125.306 344.023C126.427 349.695 126.659 350.527 127.772 352.826C128.38 354.083 128.947 355.516 129.033 356.008C129.154 356.699 129.517 357.226 130.62 358.311C132.346 360.007 134.267 360.995 136.091 361.125C137.349 361.216 137.422 361.189 138.37 360.281L139.35 359.342V357.6C139.35 355.991 139.297 355.799 138.655 355.077C138.272 354.648 137.959 354.125 137.959 353.916C137.959 353.706 137.129 351.925 136.115 349.957L134.27 346.38L133.797 340.984C133.212 334.304 133.212 332.848 133.793 325.275C134.049 321.942 134.364 317.842 134.491 316.162C135.041 308.965 135.211 307.368 135.511 306.57C136.305 304.462 137.032 301.685 137.032 300.759C137.032 300.12 137.251 299.329 137.622 298.62C137.946 298.002 138.562 296.621 138.992 295.552C139.421 294.483 140.526 291.86 141.445 289.722C142.781 286.617 143.293 285.076 143.985 282.063C145.001 277.645 145.477 274.9 145.83 271.431C146.29 266.912 146.391 266.611 148.589 263.221C151.013 259.484 153.067 256.874 154.184 256.11C154.991 255.558 155.139 255.541 158.943 255.537C163.402 255.534 169.975 255.197 172.101 254.862C174.288 254.519 177.183 253.003 178.921 251.291C180.914 249.328 181.28 248.45 181.296 245.595C181.305 244.053 181.417 243.123 181.641 242.737C181.823 242.422 181.976 241.633 181.98 240.983C181.986 240.052 181.866 239.657 181.419 239.132L180.849 238.464L176.61 238.321C174.279 238.242 171.381 238.066 170.17 237.93C168.233 237.713 167.82 237.583 166.731 236.853C166.05 236.396 164.538 235.025 163.371 233.806C160.972 231.302 159.425 230.191 156.261 228.701C154.103 227.684 154.006 227.662 150.661 227.428C146.809 227.158 145.181 227.163 142.367 227.453ZM849.168 230.752C843.802 232.175 840.103 237.04 840.103 242.665C840.103 246.297 841.26 248.888 844.06 251.527C846.908 254.215 848.677 254.933 852.502 254.955C855.195 254.97 856.609 254.696 858.408 253.813C861.018 252.533 863.448 249.788 864.464 246.967C865.081 245.261 865.3 241.788 864.911 239.932C864.566 238.297 863.341 235.843 862.223 234.558C860.95 233.088 858.719 231.633 856.741 230.977C855.297 230.499 854.548 230.393 852.692 230.406C851.438 230.414 849.853 230.57 849.168 230.752ZM578.971 232.352C575.219 233.348 571.875 236.486 570.606 240.209C569.124 244.552 570.208 249.524 573.333 252.681C575.923 255.296 578.344 256.417 581.838 256.62C585.581 256.835 588.453 255.755 591.17 253.108C594.349 250.015 595.569 245.849 594.602 241.403C593.678 237.162 590.053 233.442 585.771 232.341C584.069 231.905 580.633 231.91 578.971 232.352ZM745.817 232.795C744.17 233.251 741.764 234.514 740.335 235.675C738.736 236.977 717.982 257.139 717.982 257.392C717.982 257.506 719.61 257.599 721.603 257.599H725.219L726.988 256.655C727.96 256.137 729.487 255.319 730.381 254.838C731.27 254.358 732.84 253.522 733.866 252.981C744.583 247.329 750.896 243.842 751.985 242.977C754.269 241.161 755.169 238.587 754.26 236.445C753.754 235.246 752.51 233.841 751.382 233.189C750.114 232.455 747.674 232.283 745.817 232.795ZM203.829 240.621L200.527 240.692V241.316C200.527 241.659 203.141 248.215 206.336 255.885C214.707 275.981 225.715 303.113 229.155 312.128C230.786 316.404 234.539 326.258 237.495 334.026C240.45 341.795 242.927 348.208 242.998 348.278C243.068 348.348 244.164 348.242 245.433 348.043C248.338 347.588 252.316 347.579 254.673 348.024C255.672 348.213 256.594 348.367 256.723 348.367C256.851 348.367 257.206 347.724 257.512 346.938C257.818 346.153 260.697 339.13 263.911 331.334C267.124 323.537 272.231 311.14 275.259 303.783C288.569 271.449 291.536 264.305 293.952 258.78C295.362 255.552 297.599 250.432 298.923 247.402C300.247 244.372 301.33 241.63 301.33 241.309V240.726L298.143 240.556C295.322 240.406 287.02 240.546 286.816 240.747C286.773 240.79 285.111 245.087 283.122 250.297C278.869 261.44 270.94 282.228 265.294 297.038C261.467 307.079 257.647 317.065 257.074 318.528C256.821 319.173 256.536 318.531 251.948 306.982C249.276 300.255 245.101 289.402 242.67 282.863C240.24 276.324 237.884 269.996 237.435 268.801C235.766 264.361 230.967 249.647 228.816 242.373L228.337 240.752L223.78 240.601C219.459 240.458 211.097 240.467 203.829 240.621ZM396.221 247.572C391.551 249.844 384.08 253.17 380.751 254.46L378.948 255.159L379.093 257.465C379.244 259.94 379.813 274.593 379.759 274.691C379.745 274.723 378.748 274.648 377.548 274.523C376.347 274.399 373.883 274.295 372.065 274.293L368.765 274.289V278.062V281.834H374.335H379.905L379.793 282.577C379.73 282.986 379.618 288.464 379.545 294.752C379.473 301.039 379.302 310.95 379.171 316.775C378.923 327.614 379.016 330.259 379.764 334.192C381.076 341.064 384.304 345.831 389.271 348.24C395.789 351.398 407.089 350.908 414.71 347.138L416.615 346.195L416.679 343.28C416.717 341.676 416.679 340.365 416.591 340.365C416.508 340.365 415.697 340.644 414.788 340.985C413.32 341.538 412.824 341.606 410.243 341.611C407.604 341.617 407.23 341.564 406.073 341.028C404.241 340.181 403.39 339.379 402.618 337.775C401.305 335.049 401.169 333.838 400.97 323.332C400.737 311.037 400.698 292.422 400.897 286.464L401.048 281.834H408.081H415.109V277.802V273.772L414.122 273.918C413.583 273.999 410.404 274.132 407.055 274.213L400.975 274.36V273.009C400.975 272.267 401.072 269.808 401.198 267.544C401.568 260.759 401.884 254.288 402.044 250.149L402.195 246.243L401.529 245.781L400.858 245.319L396.221 247.572ZM724.816 271.248C716.281 272.158 709.647 274.829 701.817 280.507C700.64 281.362 699.673 282.111 699.673 282.171C699.673 282.231 700.144 284.332 700.718 286.839C701.292 289.346 701.758 291.458 701.758 291.532C701.758 291.605 702.016 291.665 702.327 291.665C702.721 291.665 703.396 291.178 704.499 290.106C709.992 284.76 716.179 282.274 723.197 282.594C727.737 282.801 730.799 283.98 733.394 286.521C735.829 288.907 737.214 292.381 737.214 296.115C737.214 297.781 737.142 298.089 736.539 299.033C734.741 301.824 730.619 303.855 721.302 306.537C709.156 310.032 701.554 313.365 698.973 316.325C697.695 317.794 696.31 320.655 695.692 323.103C695.25 324.871 695.172 325.788 695.167 329.619C695.153 334.181 695.245 334.858 696.242 337.621C698.341 343.469 703.77 347.936 710.798 349.599C714.726 350.529 720.213 350.526 723.985 349.593C728.947 348.365 733.705 345.029 737.394 340.194C738.094 339.282 738.702 338.536 738.75 338.536C738.804 338.536 739.1 339.112 739.416 339.816C741.39 344.219 744.894 347.38 749.263 348.701C753.604 350.013 760.112 348.975 766.697 345.921L768.977 344.861L768.914 342.899C768.855 341.288 768.782 340.952 768.501 341.026C768.306 341.075 767.315 341.16 766.299 341.215C764.608 341.306 764.33 341.257 763.169 340.669C761.516 339.83 760.549 338.438 760.053 336.189C759.412 333.265 759.237 328.02 759.232 311.639C759.227 291.419 758.96 288.342 756.836 284.204C755.348 281.313 752.048 277.178 749.915 275.542C747.159 273.427 742.819 272.056 736.519 271.312C734.755 271.104 726.585 271.059 724.816 271.248ZM903.828 271.434C899.123 272.073 895.298 273.228 890.953 275.326C886.831 277.315 880.114 281.769 880.318 282.379C880.362 282.519 880.721 284.074 881.11 285.835C882.423 291.781 882.35 291.543 882.928 291.625C883.327 291.681 883.968 291.218 885.519 289.761C889.101 286.401 892.717 284.331 897.067 283.155C899.492 282.499 905.504 282.436 907.75 283.043C911.653 284.098 914.968 286.702 916.431 289.861C917.655 292.513 918.239 295.989 917.753 297.77C916.858 301.035 911.507 303.986 901.859 306.532C898.758 307.351 891.351 309.847 888.649 310.985C881.207 314.119 878.729 316.225 877.023 320.864C875.963 323.747 875.725 325.348 875.715 329.733C875.71 333.279 875.778 334.102 876.216 335.678C878.384 343.468 884.435 348.506 893.402 349.988C897.665 350.692 903.784 350.149 907.283 348.755C911.036 347.258 915.109 344.042 917.85 340.402C918.613 339.387 919.293 338.555 919.357 338.554C919.42 338.553 919.867 339.358 920.348 340.344C922.078 343.875 924.329 346.228 927.352 347.669C932.834 350.287 939.051 349.706 947.688 345.771L949.481 344.953V342.912V340.871L948.611 341.069C946.283 341.602 944.105 341.193 942.725 339.965C941.563 338.929 941.053 337.943 940.548 335.782C940.203 334.28 940.135 331.711 939.979 314.186C939.794 293.499 939.683 291.168 938.696 287.436C937.943 284.58 935.775 281.03 932.693 277.588C928.645 273.071 921.748 271.053 910.554 271.112C908.066 271.125 905.038 271.269 903.828 271.434ZM321.954 271.463C319.68 271.675 315.565 272.503 313.43 273.178C308.898 274.609 305.114 276.81 301.748 279.97C293.994 287.25 290.206 297.394 290.206 310.878C290.206 320.013 292.026 327.42 295.824 333.745C302.328 344.574 313.728 350.425 328.326 350.425C333.964 350.425 339.372 349.473 344.547 347.571C347.17 346.607 352.577 343.942 353.069 343.372C353.248 343.164 353.735 341.914 354.152 340.594C354.568 339.273 355.278 337.393 355.729 336.416C356.181 335.44 356.508 334.606 356.458 334.563C356.407 334.52 355.919 334.171 355.374 333.788L354.383 333.089L352.246 334.674C346.099 339.233 338.779 341.15 331.802 340.028C327.978 339.413 325.436 338.396 322.765 336.412C319.05 333.656 316.341 328.934 315.022 322.919C314.386 320.017 313.843 315.402 313.843 312.899V310.923L320.969 310.75C324.888 310.655 335.149 310.635 343.771 310.704L359.448 310.832L359.624 307.707C359.831 304.011 359.475 298.72 358.804 295.537C357.405 288.896 354.791 283.997 350.335 279.662C346.049 275.493 341.155 273.119 334.296 271.881C332.306 271.522 324.242 271.249 321.954 271.463ZM455.892 271.478C451.965 271.786 446.351 273.275 443.129 274.864C437.073 277.849 432.12 282.817 428.893 289.15C426.764 293.317 425.175 299.014 424.62 304.436C424.309 307.497 424.309 314.385 424.625 317.224C425.767 327.526 430.127 336.409 436.766 341.954C443.202 347.325 450.91 350.051 460.553 350.362C468.038 350.604 474.177 349.479 480.806 346.649C483.392 345.544 487.251 343.499 487.324 343.193C487.596 342.049 489.151 337.623 489.71 336.4C490.099 335.539 490.42 334.762 490.42 334.671C490.42 334.582 489.944 334.176 489.36 333.77L488.301 333.033L487.509 333.72C486.274 334.788 483.523 336.559 481.666 337.483C475.562 340.516 468.033 341.177 462.094 339.203C455.158 336.897 450.721 331.207 448.835 322.192C448.383 320.026 447.795 314.56 447.79 312.441L447.785 310.923L455.139 310.75C459.187 310.655 469.448 310.635 477.939 310.705L493.385 310.834L493.526 310.138C493.798 308.796 493.667 301.345 493.326 298.852C492.486 292.712 490.605 287.613 487.65 283.483C482.673 276.523 475.348 272.564 465.569 271.548C463.547 271.337 458.181 271.299 455.892 271.478ZM549.711 271.554C547.456 271.814 544.574 272.603 542.615 273.496C537.089 276.015 532.282 281.619 528.515 289.942L527.475 292.237L527.626 282.658L527.782 273.079L526.771 273.222C519.402 274.265 515.417 274.27 507.592 273.241L506.338 273.077L506.488 278.999C506.571 282.255 506.751 288.11 506.882 292.008C507.519 310.499 507.519 310.115 506.887 328.933C506.751 333.02 506.571 339.013 506.488 342.251L506.338 348.139H509.443C511.154 348.139 513.429 348.018 514.503 347.87C516.024 347.66 517.866 347.666 522.8 347.896C526.289 348.058 529.196 348.138 529.264 348.074C529.385 347.954 529.104 335.519 528.642 320.702C528.423 313.705 528.438 312.081 528.754 308.927C529.906 297.435 533.59 292.816 542.353 291.871C545.191 291.564 547.427 291.856 550.251 292.903L552.36 293.685L553.279 293.085L554.203 292.485L554.076 289.731C554.013 288.217 553.833 285.332 553.682 283.32C553.425 279.849 553.571 275.74 554.066 272.288L554.207 271.317L552.73 271.346C551.918 271.363 550.557 271.457 549.711 271.554ZM653.446 271.459C646.117 272.568 639.939 276.125 634.802 282.198C633.854 283.318 632.979 284.338 632.863 284.463C632.6 284.745 632.848 277.718 633.198 275.017C633.334 273.972 633.402 273.071 633.344 273.015C633.29 272.96 632.367 273.063 631.293 273.244C627.263 273.924 623.22 274.125 619.331 273.838C617.319 273.69 614.69 273.424 613.484 273.248C612.284 273.071 611.249 272.974 611.19 273.032C611.093 273.13 611.341 284.215 611.851 302.297C611.968 306.447 612.07 318.459 612.07 328.99L612.08 348.139H623.098H634.117L633.99 345.338C633.188 327.667 633.047 305.916 633.684 299.553C633.903 297.416 634.248 295.1 634.457 294.409C635.064 292.38 636.372 290.164 637.932 288.498C640.328 285.947 643.079 284.806 646.841 284.806C650.506 284.806 652.931 285.781 655.186 288.165C658.209 291.352 659.638 296.256 659.969 304.583C660.115 308.316 659.721 325.978 659.366 331.677C659.245 333.626 659.031 337.69 658.895 340.708C658.759 343.726 658.608 346.633 658.564 347.167L658.482 348.139H670.423H682.365L682.215 342.594C682.132 339.545 681.996 334.508 681.908 331.401C681.826 328.295 681.894 318.984 682.054 310.71C682.365 294.863 682.331 293.795 681.379 289.264C679.964 282.554 676.202 277.304 670.71 274.364C668.892 273.392 665.86 272.362 663.381 271.877C661.607 271.529 654.856 271.245 653.446 271.459ZM824.623 271.561C820.993 272.027 817.401 273.337 814.587 275.22C810.64 277.866 806.684 283.087 803.578 289.751L802.523 292.008L802.669 282.546L802.815 273.084L801.818 273.207C801.274 273.275 799.519 273.506 797.93 273.721C794.173 274.227 788.9 274.062 782.654 273.241L781.4 273.077L781.551 278.999C781.633 282.255 781.828 288.676 781.983 293.266C782.338 303.884 782.338 316.879 781.983 327.676C781.828 332.328 781.633 338.85 781.551 342.169L781.4 348.202L785.667 348.024C791.675 347.774 795.549 347.765 800.336 347.993L804.482 348.19L804.326 342.163C804.239 338.847 804.059 332.843 803.928 328.819C803.379 311.934 803.583 306.908 805.021 301.997C807.019 295.204 811.529 291.926 819.014 291.826C821.921 291.787 823.272 292.034 825.809 293.067L827.389 293.709L828.273 293.132L829.158 292.555L829.056 289.538C829.002 287.879 828.857 285.646 828.735 284.577C828.448 282.033 828.482 278.356 828.827 274.46L829.109 271.317L827.598 271.345C826.762 271.362 825.425 271.459 824.623 271.561ZM840.901 275.913C840.988 278.478 841.207 283.817 841.391 287.778C841.809 296.907 841.809 300.731 841.382 311.214C841.192 315.867 840.935 322.451 840.803 325.846C840.677 329.242 840.449 335.236 840.303 339.166C840.152 343.096 840.094 346.377 840.176 346.456C840.254 346.535 841.965 346.468 843.977 346.307C847.525 346.024 856.823 346.099 862.32 346.456L864.493 346.597L864.342 342.052C864.259 339.552 864.06 334.883 863.905 331.677C863.535 323.953 863.555 296.925 863.939 289.607C864.23 283.982 864.779 275.75 865.052 272.845L865.197 271.287L863.253 271.431C860.094 271.666 855.039 271.673 847.666 271.455L840.74 271.25L840.901 275.913ZM570.601 273.451C570.601 273.783 570.703 276.345 570.825 279.145C571.68 298.477 571.724 301.377 571.316 311.241C570.538 329.996 569.906 347.987 570.023 348.101C570.072 348.149 571.569 348.06 573.352 347.904C576.492 347.63 587.749 347.717 592.551 348.053L594.451 348.186L594.339 347.076C594.281 346.466 594.125 343.24 593.999 339.908C593.873 336.575 593.654 331.019 593.513 327.561C593.178 319.4 593.392 295.338 593.863 287.893C594.398 279.518 594.689 275.438 594.845 274.11L594.986 272.902L593.046 273.064C590.266 273.297 583.715 273.292 576.682 273.054L570.601 272.847V273.451ZM329.815 278.311C332.336 279.052 334.355 281.161 335.618 284.371C336.95 287.755 337.929 294.505 337.938 300.38L337.943 303.264L336.868 303.409C336.277 303.489 331.337 303.554 325.893 303.554C320.448 303.554 315.509 303.489 314.918 303.409L313.843 303.264L313.845 301.294C313.848 298.93 314.355 294.301 314.888 291.786C317.124 281.215 322.67 276.208 329.815 278.311ZM463.426 278.22C468.908 279.593 471.406 285.715 471.815 298.775L471.951 303.254L470.842 303.404C469.418 303.597 450.278 303.601 448.859 303.409L447.785 303.264V301.866C447.785 298.702 448.422 293.565 449.204 290.408C451.557 280.933 456.689 276.535 463.426 278.22ZM737.914 318.073C737.754 327.786 737.705 328.73 737.244 330.419C735.834 335.612 732.967 338.463 728.378 339.227C724.087 339.941 720.816 338.573 719.158 335.375C717.987 333.103 717.647 331.15 717.647 326.647C717.647 322.955 717.715 322.17 718.176 320.476C718.857 317.996 719.882 316.098 721.141 315.005C721.802 314.432 723.484 313.559 726.143 312.409C730.493 310.528 737.973 307.465 738.055 307.531C738.075 307.544 738.012 312.289 737.914 318.073ZM918.657 316.53C918.652 326.273 918.428 329.005 917.403 331.894C915.974 335.937 913.364 338.297 909.407 339.124C906.282 339.778 903.536 339.292 901.631 337.749C900.314 336.686 899.108 334.29 898.598 331.714C898.097 329.216 898.233 322.22 898.821 320.131C899.93 316.196 901.198 314.879 905.913 312.771C910.02 310.936 917.971 307.683 918.37 307.676C918.598 307.671 918.657 309.589 918.657 316.53Z" fill="black"/>
<path d="M4.51074 57V12.6191H18.8906C24.3398 12.6191 27.8919 12.8411 29.5469 13.2852C32.0898 13.9512 34.2191 15.4043 35.9346 17.6445C37.6501 19.8646 38.5078 22.7406 38.5078 26.2725C38.5078 28.9971 38.0133 31.2878 37.0244 33.1445C36.0355 35.0013 34.7741 36.4645 33.2402 37.5342C31.7266 38.5837 30.1826 39.2799 28.6084 39.623C26.4691 40.0469 23.3711 40.2588 19.3145 40.2588H13.4717V57H4.51074ZM13.4717 20.127V32.7207H18.376C21.9079 32.7207 24.2692 32.4886 25.46 32.0244C26.6507 31.5602 27.5791 30.8337 28.2451 29.8447C28.9313 28.8558 29.2744 27.7054 29.2744 26.3936C29.2744 24.779 28.8001 23.4469 27.8516 22.3975C26.903 21.348 25.7021 20.6921 24.249 20.4297C23.1794 20.2279 21.0299 20.127 17.8008 20.127H13.4717ZM83.0933 35.082C83.0933 30.5612 83.7694 26.7669 85.1216 23.6992C86.1308 21.4388 87.5032 19.4105 89.2388 17.6143C90.9947 15.818 92.912 14.486 94.9908 13.6182C97.7558 12.4476 100.945 11.8623 104.557 11.8623C111.096 11.8623 116.323 13.8906 120.239 17.9473C124.174 22.0039 126.142 27.6449 126.142 34.8701C126.142 42.0348 124.195 47.6455 120.299 51.7021C116.404 55.7386 111.197 57.7568 104.678 57.7568C98.0787 57.7568 92.8313 55.7487 88.9361 51.7324C85.0409 47.696 83.0933 42.1458 83.0933 35.082ZM92.3267 34.7793C92.3267 39.8047 93.4872 43.6191 95.8082 46.2227C98.1291 48.806 101.076 50.0977 104.648 50.0977C108.22 50.0977 111.147 48.8161 113.427 46.2529C115.728 43.6696 116.878 39.8047 116.878 34.6582C116.878 29.5723 115.758 25.778 113.518 23.2754C111.298 20.7728 108.341 19.5215 104.648 19.5215C100.955 19.5215 97.9778 20.793 95.7173 23.3359C93.4569 25.8587 92.3267 29.6732 92.3267 34.7793ZM173.392 57V12.6191H192.252C196.995 12.6191 200.436 13.0228 202.575 13.8301C204.735 14.6172 206.46 16.0299 207.752 18.0684C209.044 20.1068 209.69 22.4378 209.69 25.0615C209.69 28.3916 208.711 31.1465 206.753 33.3262C204.795 35.4857 201.869 36.848 197.974 37.4131C199.911 38.5433 201.506 39.7845 202.757 41.1367C204.028 42.4889 205.734 44.8906 207.873 48.3418L213.292 57H202.575L196.097 47.3428C193.796 43.8916 192.222 41.722 191.374 40.834C190.526 39.9258 189.628 39.3102 188.68 38.9873C187.731 38.6442 186.228 38.4727 184.169 38.4727H182.353V57H173.392ZM182.353 31.3887H188.983C193.281 31.3887 195.966 31.207 197.035 30.8438C198.105 30.4805 198.943 29.8548 199.548 28.9668C200.153 28.0788 200.456 26.9688 200.456 25.6367C200.456 24.1432 200.053 22.9424 199.245 22.0342C198.458 21.1058 197.338 20.5205 195.885 20.2783C195.158 20.1774 192.979 20.127 189.346 20.127H182.353V31.3887ZM268.352 57V20.127H255.183V12.6191H290.452V20.127H277.313V57H268.352ZM374.181 57H364.433L360.558 46.9189H342.818L339.155 57H329.649L346.935 12.6191H356.41L374.181 57ZM357.682 39.4414L351.567 22.9727L345.573 39.4414H357.682ZM417.101 57V12.9824H426.062V49.5225H448.344V57H417.101Z" fill="black"/>
</svg>
